# xmcd
#
# Track frame offsets:
#	150
#	17144
#	30815
#	48257
#	76192
#	93924
#	111134
#	131645
#	149796
#
# Disc length: 2400 seconds
#
# Revision: 0
# Processed by: cddbd v1.5.1PL0 Copyright (c) Steve Scherf et al.
# Submitted via: dBpowerAMP V4.0
#
DISCID=6b095e09
DTITLE=Pé Redondo Blues - tudo é tudo e nada é nada
DYEAR=1998
DGENRE=blues
TTITLE0=Living in my Neighborhood
TTITLE1=Walking By Myself
TTITLE2=Let Me Love You Baby
TTITLE3=Born to Be Wild
TTITLE4=I Got the Blues
TTITLE5=Key to the Highway
TTITLE6=That's All Right
TTITLE7=Deixa eu te amar
TTITLE8=Hide Away
EXTD=
EXTT0=
EXTT1=
EXTT2=
EXTT3=
EXTT4=
EXTT5=
EXTT6=
EXTT7=
EXTT8=
PLAYORDER=
